<?xml version="1.0" encoding="UTF-8" standalone="no"?>
<!-- Created with Inkscape (http://www.inkscape.org/) -->

<svg
   xmlns:dc="http://purl.org/dc/elements/1.1/"
   xmlns:cc="http://creativecommons.org/ns#"
   xmlns:rdf="http://www.w3.org/1999/02/22-rdf-syntax-ns#"
   xmlns:svg="http://www.w3.org/2000/svg"
   xmlns="http://www.w3.org/2000/svg"
   xmlns:xlink="http://www.w3.org/1999/xlink"
   xmlns:sodipodi="http://sodipodi.sourceforge.net/DTD/sodipodi-0.dtd"
   xmlns:inkscape="http://www.inkscape.org/namespaces/inkscape"
   width="220.30939"
   height="220.30939"
   id="svg2"
   version="1.1"
   inkscape:version="0.48.4 r9939"
   sodipodi:docname="Rocket.svg"
   inkscape:export-filename="/home/matis/public_html/Poko Rockets/public_html/images/Hole.png"
   inkscape:export-xdpi="40.849998"
   inkscape:export-ydpi="40.849998">
  <defs
     id="defs4">
    <linearGradient
       id="linearGradient3899">
      <stop
         style="stop-color:#ffffff;stop-opacity:1;"
         offset="0"
         id="stop3901" />
      <stop
         style="stop-color:#a2a2a2;stop-opacity:1;"
         offset="1"
         id="stop3903" />
    </linearGradient>
    <linearGradient
       inkscape:collect="always"
       id="linearGradient3813">
      <stop
         style="stop-color:#ffffff;stop-opacity:1;"
         offset="0"
         id="stop3815" />
      <stop
         style="stop-color:#ffffff;stop-opacity:0;"
         offset="1"
         id="stop3817" />
    </linearGradient>
    <linearGradient
       inkscape:collect="always"
       id="linearGradient3791">
      <stop
         style="stop-color:#b3b3b3;stop-opacity:1;"
         offset="0"
         id="stop3793" />
      <stop
         style="stop-color:#b3b3b3;stop-opacity:0;"
         offset="1"
         id="stop3795" />
    </linearGradient>
    <inkscape:perspective
       sodipodi:type="inkscape:persp3d"
       inkscape:vp_x="0 : 526.18109 : 1"
       inkscape:vp_y="0 : 1000 : 0"
       inkscape:vp_z="744.09448 : 526.18109 : 1"
       inkscape:persp3d-origin="372.04724 : 350.78739 : 1"
       id="perspective10" />
    <radialGradient
       inkscape:collect="always"
       xlink:href="#linearGradient3791"
       id="radialGradient3797"
       cx="222.62889"
       cy="441.00159"
       fx="222.62889"
       fy="441.00159"
       r="87.791138"
       gradientTransform="matrix(1,0,0,0.77155174,0,90.424546)"
       gradientUnits="userSpaceOnUse" />
    <filter
       color-interpolation-filters="sRGB"
       inkscape:collect="always"
       id="filter3606-3">
      <feGaussianBlur
         inkscape:collect="always"
         stdDeviation="3.0857142"
         id="feGaussianBlur3608-1" />
    </filter>
    <radialGradient
       inkscape:collect="always"
       xlink:href="#linearGradient3791-8"
       id="radialGradient3797-6"
       cx="222.62889"
       cy="441.00159"
       fx="222.62889"
       fy="441.00159"
       r="87.791138"
       gradientTransform="matrix(1,0,0,0.77155174,0,90.424546)"
       gradientUnits="userSpaceOnUse" />
    <linearGradient
       inkscape:collect="always"
       id="linearGradient3791-8">
      <stop
         style="stop-color:#b3b3b3;stop-opacity:1;"
         offset="0"
         id="stop3793-8" />
      <stop
         style="stop-color:#b3b3b3;stop-opacity:0;"
         offset="1"
         id="stop3795-2" />
    </linearGradient>
    <radialGradient
       inkscape:collect="always"
       xlink:href="#linearGradient3791-8-7"
       id="radialGradient3797-6-7"
       cx="222.62889"
       cy="441.00159"
       fx="222.62889"
       fy="441.00159"
       r="87.791138"
       gradientTransform="matrix(1,0,0,0.77155174,0,90.424546)"
       gradientUnits="userSpaceOnUse" />
    <linearGradient
       inkscape:collect="always"
       id="linearGradient3791-8-7">
      <stop
         style="stop-color:#b3b3b3;stop-opacity:1;"
         offset="0"
         id="stop3793-8-1" />
      <stop
         style="stop-color:#b3b3b3;stop-opacity:0;"
         offset="1"
         id="stop3795-2-2" />
    </linearGradient>
    <radialGradient
       r="87.791138"
       fy="441.00159"
       fx="222.62889"
       cy="441.00159"
       cx="222.62889"
       gradientTransform="matrix(1,0,0,0.77155174,0,90.424546)"
       gradientUnits="userSpaceOnUse"
       id="radialGradient3896"
       xlink:href="#linearGradient3791-8-7"
       inkscape:collect="always" />
    <linearGradient
       inkscape:collect="always"
       xlink:href="#linearGradient3813"
       id="linearGradient3821"
       x1="70.330154"
       y1="63.528732"
       x2="95.346184"
       y2="62.807148"
       gradientUnits="userSpaceOnUse" />
    <linearGradient
       inkscape:collect="always"
       xlink:href="#linearGradient3813"
       id="linearGradient3833"
       gradientUnits="userSpaceOnUse"
       x1="70.330154"
       y1="63.528732"
       x2="95.346184"
       y2="62.807148" />
    <linearGradient
       inkscape:collect="always"
       xlink:href="#linearGradient3813"
       id="linearGradient3841"
       gradientUnits="userSpaceOnUse"
       x1="70.330154"
       y1="63.528732"
       x2="95.346184"
       y2="62.807148" />
    <linearGradient
       inkscape:collect="always"
       xlink:href="#linearGradient3813"
       id="linearGradient3867"
       gradientUnits="userSpaceOnUse"
       x1="70.330154"
       y1="63.528732"
       x2="95.346184"
       y2="62.807148" />
    <linearGradient
       inkscape:collect="always"
       xlink:href="#linearGradient3813"
       id="linearGradient3869"
       gradientUnits="userSpaceOnUse"
       x1="70.330154"
       y1="63.528732"
       x2="95.346184"
       y2="62.807148" />
    <linearGradient
       inkscape:collect="always"
       xlink:href="#linearGradient3813"
       id="linearGradient3871"
       gradientUnits="userSpaceOnUse"
       x1="70.330154"
       y1="63.528732"
       x2="95.346184"
       y2="62.807148" />
    <linearGradient
       inkscape:collect="always"
       xlink:href="#linearGradient3813"
       id="linearGradient3893"
       gradientUnits="userSpaceOnUse"
       x1="70.330154"
       y1="63.528732"
       x2="95.346184"
       y2="62.807148" />
    <linearGradient
       inkscape:collect="always"
       xlink:href="#linearGradient3813"
       id="linearGradient3895"
       gradientUnits="userSpaceOnUse"
       x1="70.330154"
       y1="63.528732"
       x2="95.346184"
       y2="62.807148" />
    <radialGradient
       inkscape:collect="always"
       xlink:href="#linearGradient3899"
       id="radialGradient3905"
       cx="254.28572"
       cy="363.79074"
       fx="254.28572"
       fy="363.79074"
       r="104.92439"
       gradientUnits="userSpaceOnUse"
       gradientTransform="matrix(1.719478,-1.2905637e-7,1.1834903e-7,1.5768191,-182.953,-209.84141)" />
  </defs>
  <sodipodi:namedview
     id="base"
     pagecolor="#ffffff"
     bordercolor="#666666"
     borderopacity="1.0"
     inkscape:pageopacity="0.0"
     inkscape:pageshadow="2"
     inkscape:zoom="1.6571193"
     inkscape:cx="-7.3832955"
     inkscape:cy="123.17175"
     inkscape:document-units="px"
     inkscape:current-layer="layer2"
     showgrid="false"
     inkscape:window-width="1280"
     inkscape:window-height="975"
     inkscape:window-x="-4"
     inkscape:window-y="-4"
     inkscape:window-maximized="1" />
  <metadata
     id="metadata7">
    <rdf:RDF>
      <cc:Work
         rdf:about="">
        <dc:format>image/svg+xml</dc:format>
        <dc:type
           rdf:resource="http://purl.org/dc/dcmitype/StillImage" />
        <dc:title />
      </cc:Work>
    </rdf:RDF>
  </metadata>
  <g
     inkscape:groupmode="layer"
     id="layer3"
     inkscape:label="background"
     sodipodi:insensitive="true">
    <path
       transform="matrix(0.96746869,0,0,0.96746869,-133.85878,-239.80146)"
       d="m 357.14286,363.79074 a 102.85714,102.85714 0 1 1 -205.71428,0 102.85714,102.85714 0 1 1 205.71428,0 z"
       sodipodi:ry="102.85714"
       sodipodi:rx="102.85714"
       sodipodi:cy="363.79074"
       sodipodi:cx="254.28572"
       id="path3600"
       style="fill:#333333;fill-opacity:1;stroke:#000000;stroke-width:4.13450098;stroke-linejoin:round;stroke-miterlimit:4;stroke-opacity:1;stroke-dasharray:none;stroke-dashoffset:0;display:inline;filter:url(#filter3606-3)"
       sodipodi:type="arc" />
  </g>
  <g
     inkscape:label="white"
     inkscape:groupmode="layer"
     id="layer1"
     transform="translate(-144.13103,-253.63605)"
     style="display:inline">
    <path
       sodipodi:type="arc"
       style="fill:url(#radialGradient3905);fill-opacity:1;stroke:#000000;stroke-width:4.13450098000000030;stroke-linejoin:round;stroke-miterlimit:4;stroke-opacity:1;stroke-dasharray:none;stroke-dashoffset:0;display:inline"
       id="path2816"
       sodipodi:cx="254.28572"
       sodipodi:cy="363.79074"
       sodipodi:rx="102.85714"
       sodipodi:ry="102.85714"
       d="m 357.14286,363.79074 a 102.85714,102.85714 0 1 1 -205.71428,0 102.85714,102.85714 0 1 1 205.71428,0 z"
       transform="matrix(0.96746869,0,0,0.96746869,8.27225,11.834588)" />
  </g>
  <g
     inkscape:groupmode="layer"
     id="layer2"
     inkscape:label="top"
     sodipodi:insensitive="true">
    <g
       id="g3823">
      <path
         transform="matrix(0.89473684,0,0,1.2924528,29.950525,-24.100973)"
         d="m 95.346182,62.807148 a 5.7328401,31.983213 0 1 1 -11.46568,0 5.7328401,31.983213 0 1 1 11.46568,0 z"
         sodipodi:ry="31.983213"
         sodipodi:rx="5.7328401"
         sodipodi:cy="62.807148"
         sodipodi:cx="89.613342"
         id="path3799"
         style="fill:#000000"
         sodipodi:type="arc" />
      <path
         sodipodi:type="arc"
         style="fill:url(#linearGradient3821);fill-opacity:1"
         id="path3043"
         sodipodi:cx="89.613342"
         sodipodi:cy="62.807148"
         sodipodi:rx="5.7328401"
         sodipodi:ry="31.983213"
         d="m 95.346182,62.807148 a 5.7328401,31.983213 0 1 1 -11.46568,0 5.7328401,31.983213 0 1 1 11.46568,0 z"
         transform="matrix(0.57894736,0,0,0.83629298,56.439104,6.583693)" />
    </g>
    <path
       sodipodi:type="arc"
       style="fill:url(#radialGradient3896);fill-opacity:1;stroke:none;display:inline"
       id="path2818"
       sodipodi:cx="255.80522"
       sodipodi:cy="395.82068"
       sodipodi:rx="87.791138"
       sodipodi:ry="67.735405"
       d="m 343.59636,395.82068 a 87.791138,67.735405 0 1 1 -175.58228,0 87.791138,67.735405 0 1 1 175.58228,0 z"
       transform="matrix(0.89226457,0.37116184,-0.3452858,0.95913174,7.0958551,-342.62418)"
       inkscape:transform-center-x="-59.138772"
       inkscape:transform-center-y="-24.741731" />
    <g
       id="g3827"
       inkscape:transform-center-y="-23.36449"
       transform="matrix(0.4900981,0.87166729,-0.87166729,0.4900981,147.46082,-42.586593)"
       inkscape:transform-center-x="-41.555072">
      <g
         id="g3843">
        <path
           inkscape:transform-center-y="-33.781595"
           inkscape:transform-center-x="-35.012068"
           transform="matrix(0.86728185,-0.21994593,0.31771324,1.2527939,0.50706221,-0.32411614)"
           d="m 95.346182,62.807148 a 5.7328401,31.983213 0 1 1 -11.46568,0 5.7328401,31.983213 0 1 1 11.46568,0 z"
           sodipodi:ry="31.983213"
           sodipodi:rx="5.7328401"
           sodipodi:cy="62.807148"
           sodipodi:cx="89.613342"
           id="path3829"
           style="fill:#000000"
           sodipodi:type="arc" />
        <path
           sodipodi:type="arc"
           style="fill:url(#linearGradient3833);fill-opacity:1"
           id="path3831"
           sodipodi:cx="89.613342"
           sodipodi:cy="62.807148"
           sodipodi:rx="5.7328401"
           sodipodi:ry="31.983213"
           d="m 95.346182,62.807148 a 5.7328401,31.983213 0 1 1 -11.46568,0 5.7328401,31.983213 0 1 1 11.46568,0 z"
           transform="matrix(0.56118236,-0.14231795,0.20557915,0.81063133,33.725803,22.907518)" />
      </g>
    </g>
    <g
       inkscape:transform-center-x="-47.640964"
       transform="matrix(0.03670558,0.99932613,-0.99932613,0.03670558,210.76527,-9.1540904)"
       inkscape:transform-center-y="-1.7498678"
       id="g3835">
      <path
         transform="matrix(0.89473684,0,0,1.2924528,29.950525,-24.100973)"
         d="m 95.346182,62.807148 a 5.7328401,31.983213 0 1 1 -11.46568,0 5.7328401,31.983213 0 1 1 11.46568,0 z"
         sodipodi:ry="31.983213"
         sodipodi:rx="5.7328401"
         sodipodi:cy="62.807148"
         sodipodi:cx="89.613342"
         id="path3837"
         style="fill:#000000"
         sodipodi:type="arc" />
      <path
         sodipodi:type="arc"
         style="fill:url(#linearGradient3841);fill-opacity:1"
         id="path3839"
         sodipodi:cx="89.613342"
         sodipodi:cy="62.807148"
         sodipodi:rx="5.7328401"
         sodipodi:ry="31.983213"
         d="m 95.346182,62.807148 a 5.7328401,31.983213 0 1 1 -11.46568,0 5.7328401,31.983213 0 1 1 11.46568,0 z"
         transform="matrix(0.57894736,0,0,0.83629298,56.439104,6.583693)" />
    </g>
    <g
       id="g3847"
       transform="matrix(-0.73938832,0.67327922,-0.67327922,-0.73938832,262.08462,108.04756)">
      <path
         sodipodi:type="arc"
         style="fill:#000000"
         id="path3849"
         sodipodi:cx="89.613342"
         sodipodi:cy="62.807148"
         sodipodi:rx="5.7328401"
         sodipodi:ry="31.983213"
         d="m 95.346182,62.807148 a 5.7328401,31.983213 0 1 1 -11.46568,0 5.7328401,31.983213 0 1 1 11.46568,0 z"
         transform="matrix(0.89473684,0,0,1.2924528,29.950525,-24.100973)" />
      <path
         transform="matrix(0.57894736,0,0,0.83629298,56.439104,6.583693)"
         d="m 95.346182,62.807148 a 5.7328401,31.983213 0 1 1 -11.46568,0 5.7328401,31.983213 0 1 1 11.46568,0 z"
         sodipodi:ry="31.983213"
         sodipodi:rx="5.7328401"
         sodipodi:cy="62.807148"
         sodipodi:cx="89.613342"
         id="path3851"
         style="fill:url(#linearGradient3867);fill-opacity:1"
         sodipodi:type="arc" />
    </g>
    <g
       inkscape:transform-center-x="14.994505"
       transform="matrix(-0.94924829,-0.31452774,0.31452774,-0.94924829,181.72648,238.81789)"
       inkscape:transform-center-y="45.253597"
       id="g3853">
      <g
         id="g3855">
        <path
           sodipodi:type="arc"
           style="fill:#000000"
           id="path3857"
           sodipodi:cx="89.613342"
           sodipodi:cy="62.807148"
           sodipodi:rx="5.7328401"
           sodipodi:ry="31.983213"
           d="m 95.346182,62.807148 a 5.7328401,31.983213 0 1 1 -11.46568,0 5.7328401,31.983213 0 1 1 11.46568,0 z"
           transform="matrix(0.86728185,-0.21994593,0.31771324,1.2527939,0.50706221,-0.32411614)"
           inkscape:transform-center-x="-35.012068"
           inkscape:transform-center-y="-33.781595" />
        <path
           transform="matrix(0.56118236,-0.14231795,0.20557915,0.81063133,33.725803,22.907518)"
           d="m 95.346182,62.807148 a 5.7328401,31.983213 0 1 1 -11.46568,0 5.7328401,31.983213 0 1 1 11.46568,0 z"
           sodipodi:ry="31.983213"
           sodipodi:rx="5.7328401"
           sodipodi:cy="62.807148"
           sodipodi:cx="89.613342"
           id="path3859"
           style="fill:url(#linearGradient3869);fill-opacity:1"
           sodipodi:type="arc" />
      </g>
    </g>
    <g
       id="g3861"
       inkscape:transform-center-y="33.369503"
       transform="matrix(-0.6999652,-0.71417696,0.71417696,-0.6999652,112.4105,256.71986)"
       inkscape:transform-center-x="34.047018">
      <path
         sodipodi:type="arc"
         style="fill:#000000"
         id="path3863"
         sodipodi:cx="89.613342"
         sodipodi:cy="62.807148"
         sodipodi:rx="5.7328401"
         sodipodi:ry="31.983213"
         d="m 95.346182,62.807148 a 5.7328401,31.983213 0 1 1 -11.46568,0 5.7328401,31.983213 0 1 1 11.46568,0 z"
         transform="matrix(0.89473684,0,0,1.2924528,29.950525,-24.100973)" />
      <path
         transform="matrix(0.57894736,0,0,0.83629298,56.439104,6.583693)"
         d="m 95.346182,62.807148 a 5.7328401,31.983213 0 1 1 -11.46568,0 5.7328401,31.983213 0 1 1 11.46568,0 z"
         sodipodi:ry="31.983213"
         sodipodi:rx="5.7328401"
         sodipodi:cy="62.807148"
         sodipodi:cx="89.613342"
         id="path3865"
         style="fill:url(#linearGradient3871);fill-opacity:1"
         sodipodi:type="arc" />
    </g>
    <g
       transform="matrix(0.03827862,-0.9992671,0.9992671,0.03827862,1.2445944,210.78798)"
       id="g3873">
      <path
         transform="matrix(0.89473684,0,0,1.2924528,29.950525,-24.100973)"
         d="m 95.346182,62.807148 a 5.7328401,31.983213 0 1 1 -11.46568,0 5.7328401,31.983213 0 1 1 11.46568,0 z"
         sodipodi:ry="31.983213"
         sodipodi:rx="5.7328401"
         sodipodi:cy="62.807148"
         sodipodi:cx="89.613342"
         id="path3875"
         style="fill:#000000"
         sodipodi:type="arc" />
      <path
         sodipodi:type="arc"
         style="fill:url(#linearGradient3893);fill-opacity:1"
         id="path3877"
         sodipodi:cx="89.613342"
         sodipodi:cy="62.807148"
         sodipodi:rx="5.7328401"
         sodipodi:ry="31.983213"
         d="m 95.346182,62.807148 a 5.7328401,31.983213 0 1 1 -11.46568,0 5.7328401,31.983213 0 1 1 11.46568,0 z"
         transform="matrix(0.57894736,0,0,0.83629298,56.439104,6.583693)" />
    </g>
    <g
       id="g3879"
       inkscape:transform-center-y="-42.418974"
       transform="matrix(0.88978873,-0.4563727,0.4563727,0.88978873,-35.666186,61.805078)"
       inkscape:transform-center-x="21.756697">
      <g
         id="g3881">
        <path
           inkscape:transform-center-y="-33.781595"
           inkscape:transform-center-x="-35.012068"
           transform="matrix(0.86728185,-0.21994593,0.31771324,1.2527939,0.50706221,-0.32411614)"
           d="m 95.346182,62.807148 a 5.7328401,31.983213 0 1 1 -11.46568,0 5.7328401,31.983213 0 1 1 11.46568,0 z"
           sodipodi:ry="31.983213"
           sodipodi:rx="5.7328401"
           sodipodi:cy="62.807148"
           sodipodi:cx="89.613342"
           id="path3883"
           style="fill:#000000"
           sodipodi:type="arc" />
        <path
           sodipodi:type="arc"
           style="fill:url(#linearGradient3895);fill-opacity:1"
           id="path3885"
           sodipodi:cx="89.613342"
           sodipodi:cy="62.807148"
           sodipodi:rx="5.7328401"
           sodipodi:ry="31.983213"
           d="m 95.346182,62.807148 a 5.7328401,31.983213 0 1 1 -11.46568,0 5.7328401,31.983213 0 1 1 11.46568,0 z"
           transform="matrix(0.56118236,-0.14231795,0.20557915,0.81063133,33.725803,22.907518)" />
      </g>
    </g>
  </g>
</svg>
