<?xml version="1.0" encoding="UTF-8" standalone="no"?>
<!-- Created with Inkscape (http://www.inkscape.org/) -->

<svg
   xmlns:dc="http://purl.org/dc/elements/1.1/"
   xmlns:cc="http://creativecommons.org/ns#"
   xmlns:rdf="http://www.w3.org/1999/02/22-rdf-syntax-ns#"
   xmlns:svg="http://www.w3.org/2000/svg"
   xmlns="http://www.w3.org/2000/svg"
   xmlns:xlink="http://www.w3.org/1999/xlink"
   xmlns:sodipodi="http://sodipodi.sourceforge.net/DTD/sodipodi-0.dtd"
   xmlns:inkscape="http://www.inkscape.org/namespaces/inkscape"
   width="711.86292"
   height="446.13962"
   id="svg2"
   version="1.1"
   inkscape:version="0.48.4 r9939"
   sodipodi:docname="logo.svg"
   inkscape:export-filename="C:\Soft\xampp\htdocs\html5\images\logo.png"
   inkscape:export-xdpi="40.849998"
   inkscape:export-ydpi="40.849998">
  <defs
     id="defs4">
    <linearGradient
       id="linearGradient4021">
      <stop
         style="stop-color:#ffffff;stop-opacity:1;"
         offset="0"
         id="stop4023" />
      <stop
         style="stop-color:#ffffff;stop-opacity:0;"
         offset="1"
         id="stop4025" />
    </linearGradient>
    <linearGradient
       inkscape:collect="always"
       id="linearGradient4013">
      <stop
         style="stop-color:#ffffff;stop-opacity:1;"
         offset="0"
         id="stop4015" />
      <stop
         style="stop-color:#ffffff;stop-opacity:0;"
         offset="1"
         id="stop4017" />
    </linearGradient>
    <linearGradient
       inkscape:collect="always"
       id="linearGradient3972">
      <stop
         style="stop-color:#ffffff;stop-opacity:1;"
         offset="0"
         id="stop3974" />
      <stop
         style="stop-color:#ffffff;stop-opacity:0;"
         offset="1"
         id="stop3976" />
    </linearGradient>
    <linearGradient
       id="linearGradient3876">
      <stop
         style="stop-color:#ff9200;stop-opacity:1;"
         offset="0"
         id="stop3878" />
      <stop
         style="stop-color:#ff9955;stop-opacity:0;"
         offset="1"
         id="stop3880" />
    </linearGradient>
    <linearGradient
       inkscape:collect="always"
       id="linearGradient3911">
      <stop
         style="stop-color:#ffffff;stop-opacity:1;"
         offset="0"
         id="stop3913" />
      <stop
         style="stop-color:#ffffff;stop-opacity:0;"
         offset="1"
         id="stop3915" />
    </linearGradient>
    <filter
       inkscape:collect="always"
       id="filter3904"
       color-interpolation-filters="sRGB">
      <feGaussianBlur
         inkscape:collect="always"
         stdDeviation="4.8354112"
         id="feGaussianBlur3906" />
    </filter>
    <filter
       inkscape:collect="always"
       id="filter4024"
       color-interpolation-filters="sRGB">
      <feGaussianBlur
         inkscape:collect="always"
         stdDeviation="6.5714449"
         id="feGaussianBlur4026" />
    </filter>
    <filter
       inkscape:collect="always"
       id="filter3851">
      <feGaussianBlur
         inkscape:collect="always"
         stdDeviation="2.7401486"
         id="feGaussianBlur3853" />
    </filter>
    <mask
       maskUnits="userSpaceOnUse"
       id="mask3095">
      <path
         sodipodi:nodetypes="ccccccccccccccccccccc"
         inkscape:connector-curvature="0"
         id="path3097"
         d="m 570.91,11.373483 -18.41991,34.961598 -18.24166,34.643733 c -0.25668,-0.08481 -0.0898,0.173464 -0.14792,0.285715 l -0.0293,0.06339 -0.0255,0.333533 2.18332,72.134348 -14.83553,28.1973 -16.61256,31.56337 33.16406,-1.28584 0.61139,20.83477 76.5608,-2.24667 -0.61232,-20.86603 34.43277,-0.66653 -18.43486,-30.5349 -17.77803,-29.45995 -1.99329,-68.678736 c 0.61507,0.154994 -0.0646,-1.448492 -0.071,-1.665987 0.1549,-0.205453 -0.2117,-0.37317 -0.13229,-0.246227 L 590.94962,45.456585 z"
         style="fill:#ffffff;stroke:none" />
    </mask>
    <mask
       maskUnits="userSpaceOnUse"
       id="mask3099">
      <path
         sodipodi:nodetypes="ccccccccccccccccccccc"
         inkscape:connector-curvature="0"
         id="path3101"
         d="m 570.91,11.373483 -18.41991,34.961598 -18.24166,34.643733 c -0.25668,-0.08481 -0.0898,0.173464 -0.14792,0.285715 l -0.0293,0.06339 -0.0255,0.333533 2.18332,72.134348 -14.83553,28.1973 -16.61256,31.56337 33.16406,-1.28584 0.61139,20.83477 76.5608,-2.24667 -0.61232,-20.86603 34.43277,-0.66653 -18.43486,-30.5349 -17.77803,-29.45995 -1.99329,-68.678736 c 0.61507,0.154994 -0.0646,-1.448492 -0.071,-1.665987 0.1549,-0.205453 -0.2117,-0.37317 -0.13229,-0.246227 L 590.94962,45.456585 z"
         style="fill:#ffffff;stroke:none" />
    </mask>
    <mask
       maskUnits="userSpaceOnUse"
       id="mask3103">
      <path
         sodipodi:nodetypes="ccccccccccccccccccccc"
         inkscape:connector-curvature="0"
         id="path3105"
         d="m 570.91,11.373483 -18.41991,34.961598 -18.24166,34.643733 c -0.25668,-0.08481 -0.0898,0.173464 -0.14792,0.285715 l -0.0293,0.06339 -0.0255,0.333533 2.18332,72.134348 -14.83553,28.1973 -16.61256,31.56337 33.16406,-1.28584 0.61139,20.83477 76.5608,-2.24667 -0.61232,-20.86603 34.43277,-0.66653 -18.43486,-30.5349 -17.77803,-29.45995 -1.99329,-68.678736 c 0.61507,0.154994 -0.0646,-1.448492 -0.071,-1.665987 0.1549,-0.205453 -0.2117,-0.37317 -0.13229,-0.246227 L 590.94962,45.456585 z"
         style="fill:#ffffff;stroke:none" />
    </mask>
    <mask
       maskUnits="userSpaceOnUse"
       id="mask3107">
      <path
         sodipodi:nodetypes="ccccccccccccccccccccc"
         inkscape:connector-curvature="0"
         id="path3109"
         d="m 570.91,11.373483 -18.41991,34.961598 -18.24166,34.643733 c -0.25668,-0.08481 -0.0898,0.173464 -0.14792,0.285715 l -0.0293,0.06339 -0.0255,0.333533 2.18332,72.134348 -14.83553,28.1973 -16.61256,31.56337 33.16406,-1.28584 0.61139,20.83477 76.5608,-2.24667 -0.61232,-20.86603 34.43277,-0.66653 -18.43486,-30.5349 -17.77803,-29.45995 -1.99329,-68.678736 c 0.61507,0.154994 -0.0646,-1.448492 -0.071,-1.665987 0.1549,-0.205453 -0.2117,-0.37317 -0.13229,-0.246227 L 590.94962,45.456585 z"
         style="fill:#ffffff;stroke:none" />
    </mask>
    <mask
       maskUnits="userSpaceOnUse"
       id="mask3111">
      <path
         sodipodi:nodetypes="ccccccccccccccccccccc"
         inkscape:connector-curvature="0"
         id="path3113"
         d="m 570.91,11.373483 -18.41991,34.961598 -18.24166,34.643733 c -0.25668,-0.08481 -0.0898,0.173464 -0.14792,0.285715 l -0.0293,0.06339 -0.0255,0.333533 2.18332,72.134348 -14.83553,28.1973 -16.61256,31.56337 33.16406,-1.28584 0.61139,20.83477 76.5608,-2.24667 -0.61232,-20.86603 34.43277,-0.66653 -18.43486,-30.5349 -17.77803,-29.45995 -1.99329,-68.678736 c 0.61507,0.154994 -0.0646,-1.448492 -0.071,-1.665987 0.1549,-0.205453 -0.2117,-0.37317 -0.13229,-0.246227 L 590.94962,45.456585 z"
         style="fill:#ffffff;stroke:none" />
    </mask>
    <mask
       maskUnits="userSpaceOnUse"
       id="mask3115">
      <path
         sodipodi:nodetypes="ccccccccccccccccccccc"
         inkscape:connector-curvature="0"
         id="path3117"
         d="m 570.91,11.373483 -18.41991,34.961598 -18.24166,34.643733 c -0.25668,-0.08481 -0.0898,0.173464 -0.14792,0.285715 l -0.0293,0.06339 -0.0255,0.333533 2.18332,72.134348 -14.83553,28.1973 -16.61256,31.56337 33.16406,-1.28584 0.61139,20.83477 76.5608,-2.24667 -0.61232,-20.86603 34.43277,-0.66653 -18.43486,-30.5349 -17.77803,-29.45995 -1.99329,-68.678736 c 0.61507,0.154994 -0.0646,-1.448492 -0.071,-1.665987 0.1549,-0.205453 -0.2117,-0.37317 -0.13229,-0.246227 L 590.94962,45.456585 z"
         style="fill:#ffffff;stroke:none" />
    </mask>
    <radialGradient
       inkscape:collect="always"
       xlink:href="#linearGradient3911"
       id="radialGradient3917"
       cx="584.28394"
       cy="160.16618"
       fx="584.28394"
       fy="160.16618"
       r="72.07835"
       gradientTransform="matrix(0.65993469,-0.21289087,0.56040358,1.73718,108.93699,26.726953)"
       gradientUnits="userSpaceOnUse" />
    <radialGradient
       inkscape:collect="always"
       xlink:href="#linearGradient3911"
       id="radialGradient3932"
       gradientUnits="userSpaceOnUse"
       gradientTransform="matrix(0.65993469,-0.21289087,0.56040358,1.73718,108.93699,26.726953)"
       cx="584.28394"
       cy="160.16618"
       fx="584.28394"
       fy="160.16618"
       r="72.07835" />
    <linearGradient
       inkscape:collect="always"
       xlink:href="#linearGradient3876"
       id="linearGradient3882"
       x1="517.42"
       y1="251.84449"
       x2="635.78723"
       y2="251.84449"
       gradientUnits="userSpaceOnUse" />
    <linearGradient
       inkscape:collect="always"
       xlink:href="#linearGradient3972"
       id="linearGradient3978"
       x1="186.59712"
       y1="-32.213177"
       x2="240.3624"
       y2="144.89597"
       gradientUnits="userSpaceOnUse" />
    <mask
       maskUnits="userSpaceOnUse"
       id="mask4009">
      <path
         style="fill:#ffffff;fill-opacity:1;stroke:none"
         d="M 18.545421,325.78561 C 180.36525,252.63569 325.12502,251.138 466.06225,265.69501 l 30.0453,-169.20248 -572.442022,25.3013 z"
         id="path4011"
         inkscape:connector-curvature="0"
         sodipodi:nodetypes="ccccc" />
    </mask>
    <linearGradient
       inkscape:collect="always"
       xlink:href="#linearGradient4013"
       id="linearGradient4019"
       x1="64.449593"
       y1="194.05807"
       x2="71.908005"
       y2="206.95734"
       gradientUnits="userSpaceOnUse" />
    <linearGradient
       inkscape:collect="always"
       xlink:href="#linearGradient4021"
       id="linearGradient4027"
       x1="58.234769"
       y1="207.79825"
       x2="77.073825"
       y2="207.79825"
       gradientUnits="userSpaceOnUse" />
  </defs>
  <sodipodi:namedview
     id="base"
     pagecolor="#ffffff"
     bordercolor="#666666"
     borderopacity="1.0"
     inkscape:pageopacity="0.0"
     inkscape:pageshadow="2"
     inkscape:zoom="0.63237845"
     inkscape:cx="52.440616"
     inkscape:cy="326"
     inkscape:document-units="px"
     inkscape:current-layer="g3884"
     showgrid="false"
     inkscape:window-width="1280"
     inkscape:window-height="975"
     inkscape:window-x="-4"
     inkscape:window-y="-4"
     inkscape:window-maximized="1"
     fit-margin-top="0"
     fit-margin-left="0"
     fit-margin-right="0"
     fit-margin-bottom="0" />
  <metadata
     id="metadata7">
    <rdf:RDF>
      <cc:Work
         rdf:about="">
        <dc:format>image/svg+xml</dc:format>
        <dc:type
           rdf:resource="http://purl.org/dc/dcmitype/StillImage" />
        <dc:title />
      </cc:Work>
    </rdf:RDF>
  </metadata>
  <g
     inkscape:groupmode="layer"
     id="layer2"
     inkscape:label="Warstwa"
     style="display:inline"
     transform="translate(-20.126753,-156.37901)"
     sodipodi:insensitive="true">
    <g
       transform="matrix(0.95517098,0,0,0.95517098,-9.7269443,276.22401)"
       id="g3035"
       style="fill:#000000;filter:url(#filter3904)">
      <flowRoot
         xml:space="preserve"
         id="flowRoot3037"
         style="font-size:40px;font-style:normal;font-variant:normal;font-weight:normal;font-stretch:normal;line-height:125%;letter-spacing:0px;word-spacing:0px;fill:#808080;fill-opacity:1;stroke:#000000;stroke-width:1.12421262;stroke-opacity:1;font-family:Impact;-inkscape-font-specification:Impact"
         transform="matrix(5.1893362,-1.2470335,1.2470335,5.1893362,-490.71417,-984.16959)"><flowRegion
           id="flowRegion3039"><rect
             id="rect3041"
             width="251.42857"
             height="242.85715"
             x="57.142857"
             y="186.6479"
             style="font-style:normal;font-variant:normal;font-weight:normal;font-stretch:normal;fill:#808080;stroke:#000000;stroke-width:1.12421262;stroke-opacity:1;font-family:Impact;-inkscape-font-specification:Impact" /></flowRegion><flowPara
           id="flowPara3043">P</flowPara></flowRoot>      <flowRoot
         transform="matrix(5.3336839,-0.19004873,0.19004873,5.3336839,-186.61521,-1097.5468)"
         style="font-size:40px;font-style:normal;font-variant:normal;font-weight:normal;font-stretch:normal;line-height:125%;letter-spacing:0px;word-spacing:0px;fill:#808080;fill-opacity:1;stroke:#000000;stroke-opacity:1;font-family:Impact;-inkscape-font-specification:Impact"
         id="flowRoot3045"
         xml:space="preserve"><flowRegion
           id="flowRegion3047"><rect
             style="font-style:normal;font-variant:normal;font-weight:normal;font-stretch:normal;fill:#808080;stroke:#000000;stroke-opacity:1;font-family:Impact;-inkscape-font-specification:Impact"
             y="186.6479"
             x="57.142857"
             height="242.85715"
             width="251.42857"
             id="rect3049" /></flowRegion><flowPara
           id="flowPara3051">O</flowPara></flowRoot>      <flowRoot
         xml:space="preserve"
         id="flowRoot3053"
         style="font-size:40px;font-style:normal;font-variant:normal;font-weight:normal;font-stretch:normal;line-height:125%;letter-spacing:0px;word-spacing:0px;fill:#999999;fill-opacity:1;stroke:none;font-family:Impact;-inkscape-font-specification:Impact"
         transform="matrix(5.3226871,-0.39154185,0.39154185,5.3226871,-119.1651,-1092.9737)"><flowRegion
           id="flowRegion3055"><rect
             id="rect3057"
             width="251.42857"
             height="242.85715"
             x="57.142857"
             y="186.6479"
             style="font-style:normal;font-variant:normal;font-weight:normal;font-stretch:normal;fill:#999999;font-family:Impact;-inkscape-font-specification:Impact" /></flowRegion><flowPara
           id="flowPara3059">K</flowPara></flowRoot>      <flowRoot
         transform="matrix(5.3287955,0.29705456,-0.29705456,5.3287955,123.50821,-1141.1187)"
         style="font-size:40px;font-style:normal;font-variant:normal;font-weight:normal;font-stretch:normal;line-height:125%;letter-spacing:0px;word-spacing:0px;fill:#808080;fill-opacity:1;stroke:#000000;stroke-opacity:1;font-family:Impact;-inkscape-font-specification:Impact"
         id="flowRoot3061"
         xml:space="preserve"><flowRegion
           id="flowRegion3063"><rect
             style="font-style:normal;font-variant:normal;font-weight:normal;font-stretch:normal;fill:#808080;stroke:#000000;stroke-opacity:1;font-family:Impact;-inkscape-font-specification:Impact"
             y="186.6479"
             x="57.142857"
             height="242.85715"
             width="251.42857"
             id="rect3065" /></flowRegion><flowPara
           id="flowPara3067">O</flowPara></flowRoot>    </g>
    <g
       transform="matrix(0.95517098,0,0,0.95517098,3.7594054,18.438891)"
       style="fill:#999999;display:inline;filter:url(#filter4024)"
       id="g3112">
      <flowRoot
         xml:space="preserve"
         id="flowRoot3114"
         style="font-size:40px;font-style:normal;font-variant:normal;font-weight:normal;font-stretch:normal;line-height:125%;letter-spacing:0px;word-spacing:0px;fill:#999999;fill-opacity:1;stroke:#000000;stroke-width:1.12421262;stroke-opacity:1;font-family:Impact;-inkscape-font-specification:Impact"
         transform="matrix(5.1893362,-1.2470335,1.2470335,5.1893362,-469.85703,-503.31244)"><flowRegion
           id="flowRegion3116"><rect
             id="rect3118"
             width="251.42857"
             height="242.85715"
             x="57.142857"
             y="186.6479"
             style="font-style:normal;font-variant:normal;font-weight:normal;font-stretch:normal;fill:#999999;stroke:#000000;stroke-width:1.12421262;stroke-opacity:1;font-family:Impact;-inkscape-font-specification:Impact" /></flowRegion><flowPara
           id="flowPara3120">R</flowPara></flowRoot>      <flowRoot
         xml:space="preserve"
         id="flowRoot3122"
         style="font-size:40px;font-style:normal;font-variant:normal;font-weight:normal;font-stretch:normal;line-height:125%;letter-spacing:0px;word-spacing:0px;fill:#999999;fill-opacity:1;stroke:#000000;stroke-opacity:1;font-family:Impact;-inkscape-font-specification:Impact"
         transform="matrix(5.3226871,-0.39154185,0.39154185,5.3226871,-204.02225,-612.1166)"><flowRegion
           id="flowRegion3124"><rect
             id="rect3126"
             width="251.42857"
             height="242.85715"
             x="57.142857"
             y="186.6479"
             style="font-style:normal;font-variant:normal;font-weight:normal;font-stretch:normal;fill:#999999;stroke:#000000;stroke-opacity:1;font-family:Impact;-inkscape-font-specification:Impact" /></flowRegion><flowPara
           id="flowPara3128">O</flowPara></flowRoot>      <flowRoot
         transform="matrix(5.3226871,-0.39154185,0.39154185,5.3226871,-124.02225,-626.40232)"
         style="font-size:40px;font-style:normal;font-variant:normal;font-weight:normal;font-stretch:normal;line-height:125%;letter-spacing:0px;word-spacing:0px;fill:#999999;fill-opacity:1;stroke:#000000;stroke-opacity:1;font-family:Impact;-inkscape-font-specification:Impact"
         id="flowRoot3130"
         xml:space="preserve"><flowRegion
           id="flowRegion3132"><rect
             style="font-style:normal;font-variant:normal;font-weight:normal;font-stretch:normal;fill:#999999;stroke:#000000;stroke-opacity:1;font-family:Impact;-inkscape-font-specification:Impact"
             y="186.6479"
             x="57.142857"
             height="242.85715"
             width="251.42857"
             id="rect3134" /></flowRegion><flowPara
           id="flowPara3136">C</flowPara></flowRoot>      <flowRoot
         transform="matrix(5.3226871,-0.39154185,0.39154185,5.3226871,-30.505333,-626.94873)"
         style="font-size:40px;font-style:normal;font-variant:normal;font-weight:normal;font-stretch:normal;line-height:125%;letter-spacing:0px;word-spacing:0px;fill:#999999;fill-opacity:1;stroke:#000000;stroke-opacity:1;display:inline;font-family:Impact;-inkscape-font-specification:Impact"
         id="flowRoot3138"
         xml:space="preserve"><flowRegion
           id="flowRegion3140"><rect
             style="font-style:normal;font-variant:normal;font-weight:normal;font-stretch:normal;fill:#999999;stroke:#000000;stroke-opacity:1;font-family:Impact;-inkscape-font-specification:Impact"
             y="186.6479"
             x="57.142857"
             height="242.85715"
             width="251.42857"
             id="rect3142" /></flowRegion><flowPara
           id="flowPara3144">K</flowPara></flowRoot>      <flowRoot
         xml:space="preserve"
         id="flowRoot3146"
         style="font-size:40px;font-style:normal;font-variant:normal;font-weight:normal;font-stretch:normal;line-height:125%;letter-spacing:0px;word-spacing:0px;fill:#999999;fill-opacity:1;stroke:#000000;stroke-opacity:1;display:inline;font-family:Impact;-inkscape-font-specification:Impact"
         transform="matrix(5.3226871,-0.39154185,0.39154185,5.3226871,66.637529,-635.52016)"><flowRegion
           id="flowRegion3148"><rect
             id="rect3150"
             width="251.42857"
             height="242.85715"
             x="57.142857"
             y="186.6479"
             style="font-style:normal;font-variant:normal;font-weight:normal;font-stretch:normal;fill:#999999;stroke:#000000;stroke-opacity:1;font-family:Impact;-inkscape-font-specification:Impact" /></flowRegion><flowPara
           id="flowPara3152">E</flowPara></flowRoot>      <flowRoot
         transform="matrix(1.660954,5.0720346,-5.0720346,1.660954,1562.1495,-202.97757)"
         style="font-size:40px;font-style:normal;font-variant:normal;font-weight:normal;font-stretch:normal;line-height:125%;letter-spacing:0px;word-spacing:0px;fill:#999999;fill-opacity:1;stroke:#000000;stroke-opacity:1;display:inline;font-family:Impact;-inkscape-font-specification:Impact"
         id="flowRoot3154"
         xml:space="preserve"><flowRegion
           id="flowRegion3156"><rect
             style="font-style:normal;font-variant:normal;font-weight:normal;font-stretch:normal;fill:#999999;stroke:#000000;stroke-opacity:1;font-family:Impact;-inkscape-font-specification:Impact"
             y="186.6479"
             x="57.142857"
             height="242.85715"
             width="251.42857"
             id="rect3158" /></flowRegion><flowPara
           id="flowPara3160">T</flowPara></flowRoot>    </g>
  </g>
  <g
     inkscape:label="Layer 1"
     inkscape:groupmode="layer"
     id="layer1"
     style="display:inline"
     transform="translate(-20.126753,-156.37901)"
     sodipodi:insensitive="true">
    <g
       id="g3017"
       transform="matrix(0.95517098,0,0,0.95517098,3.7594054,18.438889)">
      <flowRoot
         transform="matrix(5.1893362,-1.2470335,1.2470335,5.1893362,-504.14274,-717.59816)"
         style="font-size:40px;font-style:normal;font-variant:normal;font-weight:normal;font-stretch:normal;line-height:125%;letter-spacing:0px;word-spacing:0px;fill:#d40000;fill-opacity:1;stroke:#000000;stroke-width:1.12421262;stroke-opacity:1;font-family:Impact;-inkscape-font-specification:Impact"
         id="flowRoot2985"
         xml:space="preserve"><flowRegion
           id="flowRegion2987"><rect
             style="font-style:normal;font-variant:normal;font-weight:normal;font-stretch:normal;fill:#d40000;stroke:#000000;stroke-width:1.12421262;stroke-opacity:1;font-family:Impact;-inkscape-font-specification:Impact"
             y="186.6479"
             x="57.142857"
             height="242.85715"
             width="251.42857"
             id="rect2989" /></flowRegion><flowPara
           id="flowPara2991">P</flowPara></flowRoot>      <flowRoot
         xml:space="preserve"
         id="flowRoot2993"
         style="font-size:40px;font-style:normal;font-variant:normal;font-weight:normal;font-stretch:normal;line-height:125%;letter-spacing:0px;word-spacing:0px;fill:#008000;fill-opacity:1;stroke:#000000;stroke-opacity:1;font-family:Impact;-inkscape-font-specification:Impact"
         transform="matrix(5.3336839,-0.19004873,0.19004873,5.3336839,-200.04378,-830.97535)"><flowRegion
           id="flowRegion2995"><rect
             id="rect2997"
             width="251.42857"
             height="242.85715"
             x="57.142857"
             y="186.6479"
             style="font-style:normal;font-variant:normal;font-weight:normal;font-stretch:normal;fill:#008000;stroke:#000000;stroke-opacity:1;font-family:Impact;-inkscape-font-specification:Impact" /></flowRegion><flowPara
           id="flowPara2999">O</flowPara></flowRoot>      <flowRoot
         transform="matrix(5.3226871,-0.39154185,0.39154185,5.3226871,-132.59367,-826.40231)"
         style="font-size:40px;font-style:normal;font-variant:normal;font-weight:normal;font-stretch:normal;line-height:125%;letter-spacing:0px;word-spacing:0px;fill:#4d4d4d;fill-opacity:1;stroke:#000000;stroke-opacity:1;font-family:Impact;-inkscape-font-specification:Impact"
         id="flowRoot3001"
         xml:space="preserve"><flowRegion
           id="flowRegion3003"><rect
             style="font-style:normal;font-variant:normal;font-weight:normal;font-stretch:normal;fill:#4d4d4d;stroke:#000000;stroke-opacity:1;font-family:Impact;-inkscape-font-specification:Impact"
             y="186.6479"
             x="57.142857"
             height="242.85715"
             width="251.42857"
             id="rect3005" /></flowRegion><flowPara
           id="flowPara3007">K</flowPara></flowRoot>      <flowRoot
         xml:space="preserve"
         id="flowRoot3009"
         style="font-size:40px;font-style:normal;font-variant:normal;font-weight:normal;font-stretch:normal;line-height:125%;letter-spacing:0px;word-spacing:0px;fill:#ffff00;fill-opacity:1;stroke:#000000;stroke-opacity:1;font-family:Impact;-inkscape-font-specification:Impact"
         transform="matrix(5.3287955,0.29705456,-0.29705456,5.3287955,110.07964,-874.54729)"><flowRegion
           id="flowRegion3011"><rect
             id="rect3013"
             width="251.42857"
             height="242.85715"
             x="57.142857"
             y="186.6479"
             style="font-style:normal;font-variant:normal;font-weight:normal;font-stretch:normal;fill:#ffff00;stroke:#000000;stroke-opacity:1;font-family:Impact;-inkscape-font-specification:Impact" /></flowRegion><flowPara
           id="flowPara3015">O</flowPara></flowRoot>      <g
         id="g3086">
        <flowRoot
           transform="matrix(5.1893362,-1.2470335,1.2470335,5.1893362,-469.85703,-503.31244)"
           style="font-size:40px;font-style:normal;font-variant:normal;font-weight:normal;font-stretch:normal;line-height:125%;letter-spacing:0px;word-spacing:0px;fill:#008000;fill-opacity:1;stroke:#000000;stroke-width:1.12421262;stroke-opacity:1;font-family:Impact;-inkscape-font-specification:Impact"
           id="flowRoot3019"
           xml:space="preserve"><flowRegion
             id="flowRegion3021"><rect
               style="font-style:normal;font-variant:normal;font-weight:normal;font-stretch:normal;fill:#008000;stroke:#000000;stroke-width:1.12421262;stroke-opacity:1;font-family:Impact;-inkscape-font-specification:Impact"
               y="186.6479"
               x="57.142857"
               height="242.85715"
               width="251.42857"
               id="rect3023" /></flowRegion><flowPara
             id="flowPara3025">R</flowPara></flowRoot>        <flowRoot
           transform="matrix(5.3226871,-0.39154185,0.39154185,5.3226871,-204.02225,-612.1166)"
           style="font-size:40px;font-style:normal;font-variant:normal;font-weight:normal;font-stretch:normal;line-height:125%;letter-spacing:0px;word-spacing:0px;fill:#4d4d4d;fill-opacity:1;stroke:#000000;stroke-opacity:1;font-family:Impact;-inkscape-font-specification:Impact"
           id="flowRoot3027"
           xml:space="preserve"><flowRegion
             id="flowRegion3029"><rect
               style="font-style:normal;font-variant:normal;font-weight:normal;font-stretch:normal;fill:#4d4d4d;stroke:#000000;stroke-opacity:1;font-family:Impact;-inkscape-font-specification:Impact"
               y="186.6479"
               x="57.142857"
               height="242.85715"
               width="251.42857"
               id="rect3031" /></flowRegion><flowPara
             id="flowPara3033">O</flowPara></flowRoot>        <flowRoot
           xml:space="preserve"
           id="flowRoot3035"
           style="font-size:40px;font-style:normal;font-variant:normal;font-weight:normal;font-stretch:normal;line-height:125%;letter-spacing:0px;word-spacing:0px;fill:#ffff00;fill-opacity:1;stroke:#000000;stroke-opacity:1;font-family:Impact;-inkscape-font-specification:Impact"
           transform="matrix(5.3226871,-0.39154185,0.39154185,5.3226871,-124.02225,-626.40232)"><flowRegion
             id="flowRegion3037"><rect
               id="rect3039"
               width="251.42857"
               height="242.85715"
               x="57.142857"
               y="186.6479"
               style="font-style:normal;font-variant:normal;font-weight:normal;font-stretch:normal;fill:#ffff00;stroke:#000000;stroke-opacity:1;font-family:Impact;-inkscape-font-specification:Impact" /></flowRegion><flowPara
             id="flowPara3041">C</flowPara></flowRoot>        <flowRoot
           xml:space="preserve"
           id="flowRoot3035-1"
           style="font-size:40px;font-style:normal;font-variant:normal;font-weight:normal;font-stretch:normal;line-height:125%;letter-spacing:0px;word-spacing:0px;fill:#ff0000;fill-opacity:1;stroke:#000000;stroke-opacity:1;display:inline;font-family:Impact;-inkscape-font-specification:Impact"
           transform="matrix(5.3226871,-0.39154185,0.39154185,5.3226871,-30.505333,-626.94873)"><flowRegion
             id="flowRegion3037-7"><rect
               id="rect3039-4"
               width="251.42857"
               height="242.85715"
               x="57.142857"
               y="186.6479"
               style="font-style:normal;font-variant:normal;font-weight:normal;font-stretch:normal;fill:#ff0000;stroke:#000000;stroke-opacity:1;font-family:Impact;-inkscape-font-specification:Impact" /></flowRegion><flowPara
             id="flowPara3041-0">K</flowPara></flowRoot>        <flowRoot
           transform="matrix(5.3226871,-0.39154185,0.39154185,5.3226871,66.637529,-635.52016)"
           style="font-size:40px;font-style:normal;font-variant:normal;font-weight:normal;font-stretch:normal;line-height:125%;letter-spacing:0px;word-spacing:0px;fill:#aad400;fill-opacity:1;stroke:#000000;stroke-opacity:1;display:inline;font-family:Impact;-inkscape-font-specification:Impact"
           id="flowRoot3070"
           xml:space="preserve"><flowRegion
             id="flowRegion3072"><rect
               style="font-style:normal;font-variant:normal;font-weight:normal;font-stretch:normal;fill:#aad400;stroke:#000000;stroke-opacity:1;font-family:Impact;-inkscape-font-specification:Impact"
               y="186.6479"
               x="57.142857"
               height="242.85715"
               width="251.42857"
               id="rect3074" /></flowRegion><flowPara
             id="flowPara3076">E</flowPara></flowRoot>        <flowRoot
           xml:space="preserve"
           id="flowRoot3078"
           style="font-size:40px;font-style:normal;font-variant:normal;font-weight:normal;font-stretch:normal;line-height:125%;letter-spacing:0px;word-spacing:0px;fill:#2ad4ff;fill-opacity:1;stroke:#000000;stroke-opacity:1;display:inline;font-family:Impact;-inkscape-font-specification:Impact"
           transform="matrix(1.660954,5.0720346,-5.0720346,1.660954,1562.1495,-202.97757)"><flowRegion
             id="flowRegion3080"><rect
               id="rect3082"
               width="251.42857"
               height="242.85715"
               x="57.142857"
               y="186.6479"
               style="font-style:normal;font-variant:normal;font-weight:normal;font-stretch:normal;fill:#2ad4ff;stroke:#000000;stroke-opacity:1;font-family:Impact;-inkscape-font-specification:Impact" /></flowRegion><flowPara
             id="flowPara3084">T</flowPara></flowRoot>      </g>
    </g>
  </g>
  <g
     transform="translate(-20.126753,-156.37901)"
     style="display:inline"
     id="g3884"
     inkscape:groupmode="layer"
     inkscape:label="blysk">
    <g
       id="g3999"
       mask="url(#mask4009)"
       style="fill:#ffffff;opacity:0.2972973">
      <g
         id="flowRoot3888"
         style="font-size:40px;font-style:normal;font-variant:normal;font-weight:normal;font-stretch:normal;line-height:125%;letter-spacing:0px;word-spacing:0px;fill:#ffffff;fill-opacity:1;stroke:#000000;stroke-width:1.12421262000000000;stroke-opacity:1;font-family:Impact;-inkscape-font-specification:Impact"
         transform="matrix(4.9567033,-1.1911302,1.1911302,4.9567033,-477.78311,-666.99005)">
        <path
           style="fill:url(#linearGradient4027);fill-opacity:1"
           id="path4046"
           d="m 58.796875,191.98771 8.28125,0 c 2.239571,3e-5 3.961575,0.17581 5.166016,0.52734 1.20441,0.3516 2.109357,0.85941 2.714843,1.52344 0.605451,0.66409 1.015607,1.46813 1.230469,2.41211 0.214825,0.94404 0.322246,2.40563 0.322266,4.38477 l 0,2.7539 c -2e-5,2.01825 -0.208353,3.4896 -0.625,4.41407 -0.416685,0.92449 -1.181658,1.63412 -2.294922,2.1289 -1.113297,0.49481 -2.568373,0.7422 -4.365235,0.74219 l -2.207031,0 0,12.73437 -8.222656,0 z m 8.222656,5.41016 0,8.04687 c 0.234365,0.013 0.436188,0.0196 0.605469,0.0195 0.755197,2e-5 1.279285,-0.18553 1.572266,-0.55664 0.292956,-0.37107 0.43944,-1.14256 0.439453,-2.31445 l 0,-2.59766 c -1.3e-5,-1.0807 -0.169283,-1.78383 -0.507813,-2.10937 -0.338553,-0.3255 -1.041677,-0.48826 -2.109375,-0.48828 z" />
      </g>
      <g
         id="flowRoot3896"
         style="font-size:40px;font-style:normal;font-variant:normal;font-weight:normal;font-stretch:normal;line-height:125%;letter-spacing:0px;word-spacing:0px;fill:#ffffff;fill-opacity:1;stroke:#000000;stroke-opacity:1;font-family:Impact;-inkscape-font-specification:Impact"
         transform="matrix(5.0945801,-0.18152903,0.18152903,5.0945801,-187.31661,-775.28465)">
        <path
           id="path4049"
           style="fill:url(#linearGradient4019);fill-opacity:1"
           d="m 77.585937,210.50334 c -2e-5,3.17709 -0.07489,5.42644 -0.224609,6.74804 -0.14976,1.32162 -0.618509,2.5293 -1.40625,3.62305 -0.787778,1.09375 -1.85223,1.93359 -3.193359,2.51953 -1.34116,0.58594 -2.903659,0.87891 -4.6875,0.87891 -1.692718,0 -3.212899,-0.2767 -4.560547,-0.83008 -1.347661,-0.55339 -2.431645,-1.38346 -3.251953,-2.49024 -0.820315,-1.10676 -1.308596,-2.31119 -1.464844,-3.61328 -0.156251,-1.30207 -0.234376,-3.58072 -0.234375,-6.83593 l 0,-5.41016 c -10e-7,-3.17706 0.07487,-5.42641 0.224609,-6.74805 0.149738,-1.32159 0.618488,-2.52927 1.40625,-3.62304 0.787757,-1.09372 1.852209,-1.93357 3.19336,-2.51954 1.341138,-0.5859 2.903636,-0.87887 4.6875,-0.8789 1.692695,3e-5 3.212876,0.27672 4.560547,0.83008 1.347639,0.55341 2.431622,1.38349 3.251953,2.49023 0.820293,1.1068 1.308573,2.31123 1.464843,3.61328 0.15623,1.30211 0.234355,3.58075 0.234375,6.83594 z m -8.222656,-10.39063 c -1.2e-5,-1.47133 -0.08139,-2.41208 -0.24414,-2.82226 -0.162773,-0.41013 -0.498059,-0.61521 -1.00586,-0.61524 -0.429698,3e-5 -0.758473,0.16604 -0.986328,0.49805 -0.227874,0.33206 -0.341806,1.31187 -0.341797,2.93945 l 0,14.76563 c -9e-6,1.83594 0.07486,2.96875 0.22461,3.39843 0.149729,0.4297 0.498036,0.64454 1.044921,0.64453 0.559885,1e-5 0.917957,-0.24739 1.074219,-0.74218 0.156238,-0.49479 0.234363,-1.67317 0.234375,-3.53516 z" />
      </g>
      <g
         id="flowRoot3904"
         style="font-size:40px;font-style:normal;font-variant:normal;font-weight:normal;font-stretch:normal;line-height:125%;letter-spacing:0px;word-spacing:0px;fill:#ffffff;fill-opacity:1;stroke:#000000;stroke-opacity:1;font-family:Impact;-inkscape-font-specification:Impact"
         transform="matrix(5.0840763,-0.37398941,0.37398941,5.0840763,-122.89022,-770.91662)">
        <path
           id="path4052"
           style="fill:#ffffff"
           d="m 78.386719,191.98771 -4.707032,14.27734 5.15625,17.34375 -8.496093,0 -3.320313,-13.55468 0,13.55468 -8.222656,0 0,-31.62109 8.222656,0 0,12.28516 3.652344,-12.28516 z" />
      </g>
      <g
         id="flowRoot3912"
         style="font-size:40px;font-style:normal;font-variant:normal;font-weight:normal;font-stretch:normal;line-height:125%;letter-spacing:0px;word-spacing:0px;fill:#ffffff;fill-opacity:1;stroke:#000000;stroke-opacity:1;font-family:Impact;-inkscape-font-specification:Impact"
         transform="matrix(5.0899108,0.2837379,-0.2837379,5.0899108,108.90428,-816.9033)">
        <path
           id="path4055"
           style="fill:#ffffff"
           d="m 77.585937,210.50334 c -2e-5,3.17709 -0.07489,5.42644 -0.224609,6.74804 -0.14976,1.32162 -0.618509,2.5293 -1.40625,3.62305 -0.787778,1.09375 -1.85223,1.93359 -3.193359,2.51953 -1.34116,0.58594 -2.903659,0.87891 -4.6875,0.87891 -1.692718,0 -3.212899,-0.2767 -4.560547,-0.83008 -1.347661,-0.55339 -2.431645,-1.38346 -3.251953,-2.49024 -0.820315,-1.10676 -1.308596,-2.31119 -1.464844,-3.61328 -0.156251,-1.30207 -0.234376,-3.58072 -0.234375,-6.83593 l 0,-5.41016 c -10e-7,-3.17706 0.07487,-5.42641 0.224609,-6.74805 0.149738,-1.32159 0.618488,-2.52927 1.40625,-3.62304 0.787757,-1.09372 1.852209,-1.93357 3.19336,-2.51954 1.341138,-0.5859 2.903636,-0.87887 4.6875,-0.8789 1.692695,3e-5 3.212876,0.27672 4.560547,0.83008 1.347639,0.55341 2.431622,1.38349 3.251953,2.49023 0.820293,1.1068 1.308573,2.31123 1.464843,3.61328 0.15623,1.30211 0.234355,3.58075 0.234375,6.83594 z m -8.222656,-10.39063 c -1.2e-5,-1.47133 -0.08139,-2.41208 -0.24414,-2.82226 -0.162773,-0.41013 -0.498059,-0.61521 -1.00586,-0.61524 -0.429698,3e-5 -0.758473,0.16604 -0.986328,0.49805 -0.227874,0.33206 -0.341806,1.31187 -0.341797,2.93945 l 0,14.76563 c -9e-6,1.83594 0.07486,2.96875 0.22461,3.39843 0.149729,0.4297 0.498036,0.64454 1.044921,0.64453 0.559885,1e-5 0.917957,-0.24739 1.074219,-0.74218 0.156238,-0.49479 0.234363,-1.67317 0.234375,-3.53516 z" />
      </g>
    </g>
    <g
       id="g3920"
       transform="matrix(0.95517098,0,0,0.95517098,3.7594054,18.438889)">
      <flowRoot
         transform="matrix(5.1893362,-1.2470335,1.2470335,5.1893362,-469.85703,-503.31244)"
         style="font-size:40px;font-style:normal;font-variant:normal;font-weight:normal;font-stretch:normal;line-height:125%;letter-spacing:0px;word-spacing:0px;fill:#008000;fill-opacity:1;stroke:#000000;stroke-width:1.12421262;stroke-opacity:1;font-family:Impact;-inkscape-font-specification:Impact"
         id="flowRoot3922"
         xml:space="preserve"><flowRegion
           id="flowRegion3924"><rect
             style="font-style:normal;font-variant:normal;font-weight:normal;font-stretch:normal;fill:#008000;stroke:#000000;stroke-width:1.12421262;stroke-opacity:1;font-family:Impact;-inkscape-font-specification:Impact"
             y="186.6479"
             x="57.142857"
             height="242.85715"
             width="251.42857"
             id="rect3926" /></flowRegion><flowPara
           id="flowPara3928">R</flowPara></flowRoot>      <flowRoot
         transform="matrix(5.3226871,-0.39154185,0.39154185,5.3226871,-204.02225,-612.1166)"
         style="font-size:40px;font-style:normal;font-variant:normal;font-weight:normal;font-stretch:normal;line-height:125%;letter-spacing:0px;word-spacing:0px;fill:#4d4d4d;fill-opacity:1;stroke:#000000;stroke-opacity:1;font-family:Impact;-inkscape-font-specification:Impact"
         id="flowRoot3930"
         xml:space="preserve"><flowRegion
           id="flowRegion3932"><rect
             style="font-style:normal;font-variant:normal;font-weight:normal;font-stretch:normal;fill:#4d4d4d;stroke:#000000;stroke-opacity:1;font-family:Impact;-inkscape-font-specification:Impact"
             y="186.6479"
             x="57.142857"
             height="242.85715"
             width="251.42857"
             id="rect3934" /></flowRegion><flowPara
           id="flowPara3936">O</flowPara></flowRoot>      <flowRoot
         xml:space="preserve"
         id="flowRoot3938"
         style="font-size:40px;font-style:normal;font-variant:normal;font-weight:normal;font-stretch:normal;line-height:125%;letter-spacing:0px;word-spacing:0px;fill:#ffff00;fill-opacity:1;stroke:#000000;stroke-opacity:1;font-family:Impact;-inkscape-font-specification:Impact"
         transform="matrix(5.3226871,-0.39154185,0.39154185,5.3226871,-124.02225,-626.40232)"><flowRegion
           id="flowRegion3940"><rect
             id="rect3942"
             width="251.42857"
             height="242.85715"
             x="57.142857"
             y="186.6479"
             style="font-style:normal;font-variant:normal;font-weight:normal;font-stretch:normal;fill:#ffff00;stroke:#000000;stroke-opacity:1;font-family:Impact;-inkscape-font-specification:Impact" /></flowRegion><flowPara
           id="flowPara3944">C</flowPara></flowRoot>      <flowRoot
         xml:space="preserve"
         id="flowRoot3946"
         style="font-size:40px;font-style:normal;font-variant:normal;font-weight:normal;font-stretch:normal;line-height:125%;letter-spacing:0px;word-spacing:0px;fill:#ff0000;fill-opacity:1;stroke:#000000;stroke-opacity:1;display:inline;font-family:Impact;-inkscape-font-specification:Impact"
         transform="matrix(5.3226871,-0.39154185,0.39154185,5.3226871,-30.505333,-626.94873)"><flowRegion
           id="flowRegion3948"><rect
             id="rect3950"
             width="251.42857"
             height="242.85715"
             x="57.142857"
             y="186.6479"
             style="font-style:normal;font-variant:normal;font-weight:normal;font-stretch:normal;fill:#ff0000;stroke:#000000;stroke-opacity:1;font-family:Impact;-inkscape-font-specification:Impact" /></flowRegion><flowPara
           id="flowPara3952">K</flowPara></flowRoot>      <flowRoot
         transform="matrix(5.3226871,-0.39154185,0.39154185,5.3226871,66.637529,-635.52016)"
         style="font-size:40px;font-style:normal;font-variant:normal;font-weight:normal;font-stretch:normal;line-height:125%;letter-spacing:0px;word-spacing:0px;fill:#aad400;fill-opacity:1;stroke:#000000;stroke-opacity:1;display:inline;font-family:Impact;-inkscape-font-specification:Impact"
         id="flowRoot3954"
         xml:space="preserve"><flowRegion
           id="flowRegion3956"><rect
             style="font-style:normal;font-variant:normal;font-weight:normal;font-stretch:normal;fill:#aad400;stroke:#000000;stroke-opacity:1;font-family:Impact;-inkscape-font-specification:Impact"
             y="186.6479"
             x="57.142857"
             height="242.85715"
             width="251.42857"
             id="rect3958" /></flowRegion><flowPara
           id="flowPara3960">E</flowPara></flowRoot>      <flowRoot
         xml:space="preserve"
         id="flowRoot3962"
         style="font-size:40px;font-style:normal;font-variant:normal;font-weight:normal;font-stretch:normal;line-height:125%;letter-spacing:0px;word-spacing:0px;fill:#2ad4ff;fill-opacity:1;stroke:#000000;stroke-opacity:1;display:inline;font-family:Impact;-inkscape-font-specification:Impact"
         transform="matrix(1.660954,5.0720346,-5.0720346,1.660954,1562.1495,-202.97757)"><flowRegion
           id="flowRegion3964"><rect
             id="rect3966"
             width="251.42857"
             height="242.85715"
             x="57.142857"
             y="186.6479"
             style="font-style:normal;font-variant:normal;font-weight:normal;font-stretch:normal;fill:#2ad4ff;stroke:#000000;stroke-opacity:1;font-family:Impact;-inkscape-font-specification:Impact" /></flowRegion><flowPara
           id="flowPara3968">T</flowPara></flowRoot>    </g>
  </g>
  <g
     inkscape:groupmode="layer"
     id="layer3"
     inkscape:label="rakieta"
     style="display:inline"
     sodipodi:insensitive="true">
    <g
       id="g3121">
      <g
         id="g3919"
         transform="matrix(0.96582304,-0.25920235,0.25920235,0.96582304,-47.969456,151.70103)">
        <path
           style="fill:#ff0000;stroke:#000000;stroke-width:1px;stroke-linecap:butt;stroke-linejoin:miter;stroke-opacity:1"
           d="m 544.76522,222.09842 c -10.15413,15.65867 -27.01395,29.51771 -26.84394,47.94712 6.78082,-6.02265 10.67834,-18.6333 20.85606,-16.89446 3.2476,5.13377 3.34826,16.62577 3.2897,28.43947 3.29672,-10.58347 1.08197,-26.05816 11.01122,-30.75552 9.24101,2.56588 11.31765,13.20465 11.79224,25.64862 l 2.33612,-31.52239 c 8.34803,4.00466 11.66976,16.38505 14.52498,29.54281 -3.98094,-12.18976 -0.74377,-20.80698 1.85749,-29.73894 6.26543,7.85459 12.92522,15.32817 13.12928,29.03892 -2.86881,-12.42062 -4.61282,-24.28452 -0.74052,-33.36869 5.74999,7.21975 12.15558,11.99661 16.10378,25.93006 3.13686,-9.89957 -3.79014,-20.45219 -7.65095,-30.80584 10.82044,7.84253 21.83079,14.97743 30.78565,29.77136 1.12311,-21.42424 -11.33283,-27.54747 -20.61426,-37.24776 z"
           id="path3934"
           inkscape:connector-curvature="0"
           sodipodi:nodetypes="cccccccccccccccc" />
        <path
           sodipodi:nodetypes="ccccccccccccccccccccc"
           inkscape:connector-curvature="0"
           id="path3849"
           d="m 532.02866,10.025205 -12.21858,37.580749 -12.09687,37.237241 c -0.26735,-0.04001 -0.0591,0.186196 -0.0973,0.306675 l -0.0182,0.06745 0.0315,0.333029 14.39507,70.717141 -9.83432,30.30621 -11.01424,33.92507 32.46461,-6.89615 4.13883,20.4287 75.0686,-15.20882 -4.14504,-20.45934 33.82003,-6.50117 -23.35009,-26.96288 -22.52035,-26.01502 -13.62126,-67.343912 c 0.63244,0.04835 -0.30953,-1.41651 -0.35274,-1.629765 0.11779,-0.228764 -0.27196,-0.331824 -0.17215,-0.220201 L 557.56247,40.212434 z"
           style="fill:#000000;stroke:#000000;stroke-width:4;stroke-opacity:1;filter:url(#filter3851)"
           transform="matrix(0.98549045,0.16973089,-0.16973089,0.98549045,48.302422,-88.80796)" />
        <path
           sodipodi:nodetypes="ccccccccccccccccccccc"
           inkscape:connector-curvature="0"
           id="path3073"
           d="m 570.91,11.373483 -18.41991,34.961598 -18.24166,34.643733 c -0.25668,-0.08481 -0.0898,0.173464 -0.14792,0.285715 l -0.0293,0.06339 -0.0255,0.333533 2.18332,72.134348 -14.83553,28.1973 -16.61256,31.56337 33.16406,-1.28584 0.61139,20.83477 76.5608,-2.24667 -0.61232,-20.86603 34.43277,-0.66653 -18.43486,-30.5349 -17.77803,-29.45995 -1.99329,-68.678736 c 0.61507,0.154994 -0.0646,-1.448492 -0.071,-1.665987 0.1549,-0.205453 -0.2117,-0.37317 -0.13229,-0.246227 L 590.94962,45.456585 z"
           style="fill:none;stroke:#000000;stroke-width:4;stroke-opacity:1" />
        <path
           sodipodi:nodetypes="cccccccccccccccc"
           inkscape:connector-curvature="0"
           id="path3106"
           d="m 544.76522,222.09842 c -10.15413,15.65867 -27.01395,29.51771 -26.84394,47.94712 6.78082,-6.02265 10.67834,-18.6333 20.85606,-16.89446 3.2476,5.13377 3.34826,16.62577 3.2897,28.43947 3.29672,-10.58347 1.08197,-26.05816 11.01122,-30.75552 9.24101,2.56588 11.31765,13.20465 11.79224,25.64862 l 2.33612,-31.52239 c 8.34803,4.00466 11.66976,16.38505 14.52498,29.54281 -3.98094,-12.18976 -0.74377,-20.80698 1.85749,-29.73894 6.26543,7.85459 12.92522,15.32817 13.12928,29.03892 -2.86881,-12.42062 -4.61282,-24.28452 -0.74052,-33.36869 5.74999,7.21975 12.15558,11.99661 16.10378,25.93006 3.13686,-9.89957 -3.79014,-20.45219 -7.65095,-30.80584 10.82044,7.84253 21.83079,14.97743 30.78565,29.77136 1.12311,-21.42424 -11.33283,-27.54747 -20.61426,-37.24776 z"
           style="fill:url(#linearGradient3882);fill-opacity:1;stroke:#000000;stroke-width:1px;stroke-linecap:butt;stroke-linejoin:miter;stroke-opacity:1" />
        <path
           style="fill:#ffffff;stroke:#000000;stroke-width:4;stroke-opacity:1"
           d="m 570.91,11.373483 -18.41991,34.961598 -18.24166,34.643733 c -0.25668,-0.08481 -0.0898,0.173464 -0.14792,0.285715 l -0.0293,0.06339 -0.0255,0.333533 2.18332,72.134348 -14.83553,28.1973 -16.61256,31.56337 33.16406,-1.28584 0.61139,20.83477 76.5608,-2.24667 -0.61232,-20.86603 34.43277,-0.66653 -18.43486,-30.5349 -17.77803,-29.45995 -1.99329,-68.678736 c 0.61507,0.154994 -0.0646,-1.448492 -0.071,-1.665987 0.1549,-0.205453 -0.2117,-0.37317 -0.13229,-0.246227 L 590.94962,45.456585 z"
           id="rect3075"
           inkscape:connector-curvature="0"
           sodipodi:nodetypes="ccccccccccccccccccccc" />
        <rect
           style="fill:#ff0000;stroke-width:0.5"
           id="rect3081"
           width="129.75409"
           height="20.85965"
           x="508.40979"
           y="52.634693"
           mask="url(#mask3115)" />
        <rect
           y="87.282928"
           x="508.40979"
           height="20.85965"
           width="129.75409"
           id="rect3083"
           style="fill:#ffff00;stroke-width:0.5"
           mask="url(#mask3111)" />
        <rect
           style="fill:#008000;stroke-width:0.5"
           id="rect3085"
           width="129.75409"
           height="20.85965"
           x="508.40979"
           y="120.16339"
           mask="url(#mask3107)" />
        <rect
           y="159.05426"
           x="508.40979"
           height="20.85965"
           width="129.75409"
           id="rect3087"
           style="fill:#000080;stroke-width:0.5"
           mask="url(#mask3103)" />
        <rect
           style="fill:#00ffff;stroke-width:0.5"
           id="rect3089"
           width="150.9673"
           height="20.85965"
           x="502.04584"
           y="193.7025"
           mask="url(#mask3099)" />
        <rect
           y="12.329607"
           x="508.40979"
           height="20.85965"
           width="129.75409"
           id="rect3091"
           style="fill:#de8787;stroke-width:0.5"
           mask="url(#mask3095)" />
        <path
           sodipodi:nodetypes="ccccccccccccccccccccc"
           inkscape:connector-curvature="0"
           id="path3119"
           d="m 570.91,11.373483 -18.41991,34.961598 -18.24166,34.643733 c -0.25668,-0.08481 -0.0898,0.173464 -0.14792,0.285715 l -0.0293,0.06339 -0.0255,0.333533 2.18332,72.134348 -14.83553,28.1973 -16.61256,31.56337 33.16406,-1.28584 0.61139,20.83477 76.5608,-2.24667 -0.61232,-20.86603 34.43277,-0.66653 -18.43486,-30.5349 -17.77803,-29.45995 -1.99329,-68.678736 c 0.61507,0.154994 -0.0646,-1.448492 -0.071,-1.665987 0.1549,-0.205453 -0.2117,-0.37317 -0.13229,-0.246227 L 590.94962,45.456585 z"
           style="fill:none;stroke:#000000;stroke-width:4;stroke-opacity:1" />
        <path
           style="fill:url(#radialGradient3932);fill-opacity:1;stroke:none"
           d="m 570.91,11.373483 -18.41991,34.961598 -18.24166,34.643733 c -0.25668,-0.08481 -0.0898,0.173464 -0.14792,0.285715 l -0.0293,0.06339 -0.0255,0.333533 2.18332,72.134348 -14.83553,28.1973 -16.61256,31.56337 33.16406,-1.28584 0.61139,20.83477 76.5608,-2.24667 -0.61232,-20.86603 34.43277,-0.66653 -18.43486,-30.5349 -17.77803,-29.45995 -1.99329,-68.678736 c 0.61507,0.154994 -0.0646,-1.448492 -0.071,-1.665987 0.1549,-0.205453 -0.2117,-0.37317 -0.13229,-0.246227 L 590.94962,45.456585 z"
           id="path3133"
           inkscape:connector-curvature="0"
           sodipodi:nodetypes="ccccccccccccccccccccc" />
      </g>
    </g>
  </g>
</svg>
